<?xml version="1.0" encoding="UTF-8"?><svg version="1.1" viewBox="0 0 512 512" xmlns="http://www.w3.org/2000/svg"><path fill="#606060" d="M42.7 122.9c0-7.6 6.2-13.7 13.7-13.7h338.3c7.6 0 13.7 6.1 13.7 13.7s-6.2 13.7-13.7 13.7H56.4c-7.6 0-13.7-6.1-13.7-13.7Zm420.6 122.3H56.4c-7.6 0-13.7 6.1-13.7 13.7s6.2 13.7 13.7 13.7h406.9c7.6 0 13.7-6.1 13.7-13.7s-6.1-13.7-13.7-13.7Zm-123.4 136H56.4c-7.6 0-13.7 6.1-13.7 13.7s6.2 13.7 13.7 13.7h283.5c7.6 0 13.7-6.1 13.7-13.7 -.1-7.6-6.2-13.7-13.7-13.7Z"/></svg>